<?xml version="1.0" encoding="utf-8"?>
<!-- Generator: Adobe Illustrator 24.0.1, SVG Export Plug-In . SVG Version: 6.00 Build 0)  -->
<svg version="1.1" id="Layer_1" xmlns="http://www.w3.org/2000/svg" xmlns:xlink="http://www.w3.org/1999/xlink" x="0px" y="0px"
	 viewBox="0 0 766 186" style="enable-background:new 0 0 766 186;" xml:space="preserve">
<style type="text/css">
	.st0{fill:#005FFE;}
	.st1{fill:#222222;}
	.st2{fill:url(#SVGID_1_);}
	.st3{fill:url(#SVGID_2_);}
</style>
<g>
	<g>
		<path class="st0" d="M292.5,111.4v44.9h-20v-43.2c0-5.3-3.2-6.9-6.9-6.9c-4,0-7.7,2-7.7,8.5v41.6h-20v-43.2c0-5.3-3.2-6.9-6.9-6.9
			c-4,0-7.7,2-7.7,8.5v41.6h-20V89.7h20v6c3.1-4.5,8.4-7.9,15.3-7.9c6.7,0,12.1,2.7,15.5,8c4.3-4.7,9.9-8,17.9-8
			C284.9,87.8,292.5,96.1,292.5,111.4z"/>
		<path class="st0" d="M305.8,63.1h20v18.7h-20V63.1z M305.8,89.7h20v66.6h-20V89.7z"/>
		<path class="st0" d="M398.3,114.1v42.2h-20v-40.5c0-6.7-3.9-9.6-8.9-9.6c-6,0-9.7,3.3-9.7,11.2v38.9h-20V89.7h20v6.1
			c3.1-4.7,8.8-8,17.3-8C389.4,87.8,398.3,97.4,398.3,114.1z"/>
		<path class="st0" d="M479.6,63.1v93.3h-20v-6.3c-4.4,5.1-10.9,8.1-19.9,8.1c-17.5,0-31.8-15.3-31.8-35.2
			c0-19.9,14.4-35.2,31.8-35.2c8.9,0,15.5,3.1,19.9,8.1V63.1H479.6z M459.6,123c0-10-6.7-16.3-15.9-16.3s-15.9,6.3-15.9,16.3
			s6.7,16.3,15.9,16.3S459.6,133,459.6,123z"/>
		<path class="st1" d="M543.6,137.5c0,13.2-11.5,20.5-26.1,20.5c-14.8,0-26.3-7.7-26.3-22.4h14.1c0,6.7,5.1,9.5,12.1,9.5
			c6.9,0,11.7-2.5,11.7-7.6c0-13.2-36.9-3.7-36.9-29.2c0-12.9,11.5-20.4,25.2-20.4c13.3,0,24.8,7.6,24.8,22.3h-14.1
			c0-6.5-5.1-9.3-10.7-9.3c-6,0-10.8,2.4-10.8,7.5C506.7,121.8,543.6,112.1,543.6,137.5z"/>
		<path class="st1" d="M627.2,123c0,19.7-15.1,35-33.2,35c-10.4,0-18.3-4.3-23.3-11.3V183h-14.4V89.7h14.4v9.5
			C575.8,92.2,583.6,88,594,88C612.1,88,627.2,103.2,627.2,123z M612.8,123c0-12.4-9.1-21.3-21.1-21.3c-11.5,0-20.3,8.1-21.1,19.6
			v3.5c0.8,11.5,9.6,19.6,21.1,19.6C603.7,144.3,612.8,135.4,612.8,123z"/>
		<path class="st1" d="M693.5,89.7v66.6h-14.4v-7.6c-4.3,6.5-10.8,9.3-18.9,9.3c-12.4,0-22-9.5-22-25.5V89.7h14.4v42
			c0,8.7,5.2,12.9,12.1,12.9c7.6,0,14.4-4.5,14.4-16.7V89.7H693.5z"/>
		<path class="st1" d="M764.4,113.4v42.9h-14.4v-42.1c0-8.5-5.2-12.8-12.3-12.8c-7.5,0-14.3,4.4-14.3,16.7v38.2h-14.4V89.7h14.4v7.6
			c4.3-6.5,10.7-9.3,18.9-9.3C754.9,88,764.4,97.4,764.4,113.4z"/>
	</g>
	<g>
		<linearGradient id="SVGID_1_" gradientUnits="userSpaceOnUse" x1="35.9826" y1="144.3304" x2="144.7595" y2="16.6749">
			<stop  offset="0" style="stop-color:#2127BD"/>
			<stop  offset="1" style="stop-color:#005FFE"/>
		</linearGradient>
		<path class="st2" d="M172.1,76.2l-10.2-6.5c-1.2-6.1-3.1-11.9-5.6-17.4l4.4-11.2c-2.8-4.8-6.1-9.2-9.7-13.3l-12,0.7
			c-4.5-4.1-9.4-7.7-14.8-10.7l-3-11.7c-5-2.2-10.2-3.9-15.7-5.1l-9.3,7.7c-3-0.4-6-0.6-9.1-0.6c-3.1,0-6.1,0.2-9.1,0.6L68.6,1
			c-5.4,1.2-10.7,2.9-15.7,5.1l-3,11.7c-5.3,3-10.3,6.6-14.8,10.7l-12-0.7c-3.6,4.1-6.9,8.6-9.7,13.3l4.4,11.2
			c-2.5,5.5-4.5,11.3-5.6,17.4L2,76.2c-0.3,2.7-0.4,5.5-0.4,8.2S1.7,90,2,92.7l10.2,6.5c1.2,6.1,3.1,11.9,5.6,17.4l-4.4,11.2
			c2.8,4.8,6.1,9.2,9.7,13.3l12-0.7c4.5,4.1,9.4,7.7,14.8,10.7l3,11.7c4.1,1.8,8.3,3.2,12.7,4.4v-0.5c-2.7-1.6-4.6-4.4-4.6-7.8
			c0-2.5,1-4.8,2.7-6.4c-1.6-1.6-2.7-3.9-2.7-6.4v0c0-2.4,1-4.7,2.6-6.3c-2.2-8.5-6.3-16.4-12.3-23c-8.1-8.9-12.9-20.8-12.5-33.8
			c0.8-24.8,21-45.5,45.9-46.6c27.7-1.3,50.5,20.8,50.5,48.1c0,12.4-4.7,23.8-12.5,32.3c-6,6.6-10.1,14.5-12.3,23
			c1.6,1.6,2.6,3.9,2.6,6.3v0c0,2.5-1,4.8-2.7,6.4c1.6,1.6,2.7,3.9,2.7,6.4c0,3.4-1.9,6.2-4.6,7.8v0.5c4.4-1.1,8.6-2.6,12.7-4.4
			l3-11.7c5.3-3,10.3-6.6,14.8-10.7l12,0.7c3.6-4.1,6.9-8.6,9.7-13.3l-4.4-11.2c2.5-5.5,4.5-11.3,5.6-17.4l10.2-6.5
			c0.3-2.7,0.4-5.5,0.4-8.2S172.3,78.9,172.1,76.2z"/>
		<linearGradient id="SVGID_2_" gradientUnits="userSpaceOnUse" x1="78.4826" y1="180.5452" x2="187.2596" y2="52.8897">
			<stop  offset="0" style="stop-color:#2127BD"/>
			<stop  offset="1" style="stop-color:#005FFE"/>
		</linearGradient>
		<path class="st3" d="M71,167.2c0,0.2-0.1,0.5-0.1,0.7c0,8.9,7.2,16.1,16.1,16.1s16.1-7.2,16.1-16.1c0-0.2-0.1-0.5-0.1-0.7H71z"/>
	</g>
</g>
<g>
</g>
<g>
</g>
<g>
</g>
<g>
</g>
<g>
</g>
<g>
</g>
<g>
</g>
<g>
</g>
<g>
</g>
<g>
</g>
<g>
</g>
<g>
</g>
<g>
</g>
<g>
</g>
<g>
</g>
</svg>
